<svg width="141" height="123" viewBox="0 0 141 123" fill="none" xmlns="http://www.w3.org/2000/svg">
<path d="M68.3574 104.244L34.4434 122.708L34 83.7969L67.9385 67.5059L68.3574 104.244ZM106.275 83.7578L107.33 122.358L72.459 105.088L73.3506 67.4521L106.275 83.7578ZM67.2139 61.4736L33.6172 80.6904L0 61.4434L33.5996 43.7939L67.2139 61.4736ZM140.403 61.4736L106.806 80.6904L73.1895 61.4434L106.789 43.7939L140.403 61.4736ZM106.824 39.0703L72.8857 55.3623L72.4678 18.623L106.381 0.160156L106.824 39.0703ZM68.1104 17.2705L67.2188 54.9062L34.2939 38.6006L33.2393 0L68.1104 17.2705Z" fill="#73CEC0"/>
</svg>
